<svg width="375" height="351" viewBox="0 0 375 351" fill="none" xmlns="http://www.w3.org/2000/svg">
<!--    <path d="M74.328 143.576C74.328 144.552 74.104 145.448 73.656 146.264C73.208 147.064 72.52 147.712 71.592 148.208C70.664 148.704 69.512 148.952 68.136 148.952H65.592V155H61.488V138.152H68.136C69.48 138.152 70.616 138.384 71.544 138.848C72.472 139.312 73.168 139.952 73.632 140.768C74.096 141.584 74.328 142.52 74.328 143.576ZM67.824 145.688C68.608 145.688 69.192 145.504 69.576 145.136C69.96 144.768 70.152 144.248 70.152 143.576C70.152 142.904 69.96 142.384 69.576 142.016C69.192 141.648 68.608 141.464 67.824 141.464H65.592V145.688H67.824ZM89.4885 148.088C89.4885 148.472 89.4645 148.872 89.4165 149.288H80.1285C80.1925 150.12 80.4565 150.76 80.9205 151.208C81.4005 151.64 81.9845 151.856 82.6725 151.856C83.6965 151.856 84.4085 151.424 84.8085 150.56H89.1765C88.9525 151.44 88.5445 152.232 87.9525 152.936C87.3765 153.64 86.6485 154.192 85.7685 154.592C84.8885 154.992 83.9045 155.192 82.8165 155.192C81.5045 155.192 80.3365 154.912 79.3125 154.352C78.2885 153.792 77.4885 152.992 76.9125 151.952C76.3365 150.912 76.0485 149.696 76.0485 148.304C76.0485 146.912 76.3285 145.696 76.8885 144.656C77.4645 143.616 78.2645 142.816 79.2885 142.256C80.3125 141.696 81.4885 141.416 82.8165 141.416C84.1125 141.416 85.2645 141.688 86.2725 142.232C87.2805 142.776 88.0645 143.552 88.6245 144.56C89.2005 145.568 89.4885 146.744 89.4885 148.088ZM85.2885 147.008C85.2885 146.304 85.0485 145.744 84.5685 145.328C84.0885 144.912 83.4885 144.704 82.7685 144.704C82.0805 144.704 81.4965 144.904 81.0165 145.304C80.5525 145.704 80.2645 146.272 80.1525 147.008H85.2885ZM96.1576 143.84C96.6376 143.104 97.2376 142.528 97.9576 142.112C98.6776 141.68 99.4776 141.464 100.358 141.464V145.808H99.2296C98.2056 145.808 97.4376 146.032 96.9256 146.48C96.4136 146.912 96.1576 147.68 96.1576 148.784V155H92.0536V141.608H96.1576V143.84ZM109.439 145.016H107.231V155H103.127V145.016H101.639V141.608H103.127V141.224C103.127 139.576 103.599 138.328 104.543 137.48C105.487 136.616 106.871 136.184 108.695 136.184C108.999 136.184 109.223 136.192 109.367 136.208V139.688C108.583 139.64 108.031 139.752 107.711 140.024C107.391 140.296 107.231 140.784 107.231 141.488V141.608H109.439V145.016ZM124.392 148.088C124.392 148.472 124.368 148.872 124.32 149.288H115.032C115.096 150.12 115.36 150.76 115.824 151.208C116.304 151.64 116.888 151.856 117.576 151.856C118.6 151.856 119.312 151.424 119.712 150.56H124.08C123.856 151.44 123.448 152.232 122.856 152.936C122.28 153.64 121.552 154.192 120.672 154.592C119.792 154.992 118.808 155.192 117.72 155.192C116.408 155.192 115.24 154.912 114.216 154.352C113.192 153.792 112.392 152.992 111.816 151.952C111.24 150.912 110.952 149.696 110.952 148.304C110.952 146.912 111.232 145.696 111.792 144.656C112.368 143.616 113.168 142.816 114.192 142.256C115.216 141.696 116.392 141.416 117.72 141.416C119.016 141.416 120.168 141.688 121.176 142.232C122.184 142.776 122.968 143.552 123.528 144.56C124.104 145.568 124.392 146.744 124.392 148.088ZM120.192 147.008C120.192 146.304 119.952 145.744 119.472 145.328C118.992 144.912 118.392 144.704 117.672 144.704C116.984 144.704 116.4 144.904 115.92 145.304C115.456 145.704 115.168 146.272 115.056 147.008H120.192ZM126.141 148.304C126.141 146.912 126.421 145.696 126.981 144.656C127.557 143.616 128.349 142.816 129.357 142.256C130.381 141.696 131.549 141.416 132.861 141.416C134.541 141.416 135.941 141.856 137.061 142.736C138.197 143.616 138.941 144.856 139.293 146.456H134.925C134.557 145.432 133.845 144.92 132.789 144.92C132.037 144.92 131.437 145.216 130.989 145.808C130.541 146.384 130.317 147.216 130.317 148.304C130.317 149.392 130.541 150.232 130.989 150.824C131.437 151.4 132.037 151.688 132.789 151.688C133.845 151.688 134.557 151.176 134.925 150.152H139.293C138.941 151.72 138.197 152.952 137.061 153.848C135.925 154.744 134.525 155.192 132.861 155.192C131.549 155.192 130.381 154.912 129.357 154.352C128.349 153.792 127.557 152.992 126.981 151.952C126.421 150.912 126.141 149.696 126.141 148.304ZM149.352 151.52V155H147.264C145.776 155 144.616 154.64 143.784 153.92C142.952 153.184 142.536 151.992 142.536 150.344V145.016H140.904V141.608H142.536V138.344H146.64V141.608H149.328V145.016H146.64V150.392C146.64 150.792 146.736 151.08 146.928 151.256C147.12 151.432 147.44 151.52 147.888 151.52H149.352ZM171.204 141.608L162.804 161.36H158.388L161.46 154.544L156.012 141.608H160.596L163.692 149.984L166.764 141.608H171.204ZM179.184 155.192C177.872 155.192 176.688 154.912 175.632 154.352C174.592 153.792 173.768 152.992 173.16 151.952C172.568 150.912 172.272 149.696 172.272 148.304C172.272 146.928 172.576 145.72 173.184 144.68C173.792 143.624 174.624 142.816 175.68 142.256C176.736 141.696 177.92 141.416 179.232 141.416C180.544 141.416 181.728 141.696 182.784 142.256C183.84 142.816 184.672 143.624 185.28 144.68C185.888 145.72 186.192 146.928 186.192 148.304C186.192 149.68 185.88 150.896 185.256 151.952C184.648 152.992 183.808 153.792 182.736 154.352C181.68 154.912 180.496 155.192 179.184 155.192ZM179.184 151.64C179.968 151.64 180.632 151.352 181.176 150.776C181.736 150.2 182.016 149.376 182.016 148.304C182.016 147.232 181.744 146.408 181.2 145.832C180.672 145.256 180.016 144.968 179.232 144.968C178.432 144.968 177.768 145.256 177.24 145.832C176.712 146.392 176.448 147.216 176.448 148.304C176.448 149.376 176.704 150.2 177.216 150.776C177.744 151.352 178.4 151.64 179.184 151.64ZM201.993 141.608V155H197.889V153.176C197.473 153.768 196.905 154.248 196.185 154.616C195.481 154.968 194.697 155.144 193.833 155.144C192.809 155.144 191.905 154.92 191.121 154.472C190.337 154.008 189.729 153.344 189.297 152.48C188.865 151.616 188.649 150.6 188.649 149.432V141.608H192.729V148.88C192.729 149.776 192.961 150.472 193.425 150.968C193.889 151.464 194.513 151.712 195.297 151.712C196.097 151.712 196.729 151.464 197.193 150.968C197.657 150.472 197.889 149.776 197.889 148.88V141.608H201.993ZM209.445 143.84C209.925 143.104 210.525 142.528 211.245 142.112C211.965 141.68 212.765 141.464 213.645 141.464V145.808H212.517C211.493 145.808 210.725 146.032 210.213 146.48C209.701 146.912 209.445 147.68 209.445 148.784V155H205.341V141.608H209.445V143.84ZM225.597 141.44V144.848H231.093V148.016H225.597V151.712H231.813V155H221.493V138.152H231.813V141.44H225.597ZM243.037 141.464C244.605 141.464 245.853 141.976 246.781 143C247.725 144.008 248.197 145.4 248.197 147.176V155H244.117V147.728C244.117 146.832 243.885 146.136 243.421 145.64C242.957 145.144 242.333 144.896 241.549 144.896C240.765 144.896 240.141 145.144 239.677 145.64C239.213 146.136 238.981 146.832 238.981 147.728V155H234.877V141.608H238.981V143.384C239.397 142.792 239.957 142.328 240.661 141.992C241.365 141.64 242.157 141.464 243.037 141.464ZM256.537 141.416C257.481 141.416 258.305 141.608 259.009 141.992C259.729 142.376 260.281 142.88 260.665 143.504V141.608H264.769V154.976C264.769 156.208 264.521 157.32 264.025 158.312C263.545 159.32 262.801 160.12 261.793 160.712C260.801 161.304 259.561 161.6 258.073 161.6C256.089 161.6 254.481 161.128 253.249 160.184C252.017 159.256 251.313 157.992 251.137 156.392H255.193C255.321 156.904 255.625 157.304 256.105 157.592C256.585 157.896 257.177 158.048 257.881 158.048C258.729 158.048 259.401 157.8 259.897 157.304C260.409 156.824 260.665 156.048 260.665 154.976V153.08C260.265 153.704 259.713 154.216 259.009 154.616C258.305 155 257.481 155.192 256.537 155.192C255.433 155.192 254.433 154.912 253.537 154.352C252.641 153.776 251.929 152.968 251.401 151.928C250.889 150.872 250.633 149.656 250.633 148.28C250.633 146.904 250.889 145.696 251.401 144.656C251.929 143.616 252.641 142.816 253.537 142.256C254.433 141.696 255.433 141.416 256.537 141.416ZM260.665 148.304C260.665 147.28 260.377 146.472 259.801 145.88C259.241 145.288 258.553 144.992 257.737 144.992C256.921 144.992 256.225 145.288 255.649 145.88C255.089 146.456 254.809 147.256 254.809 148.28C254.809 149.304 255.089 150.12 255.649 150.728C256.225 151.32 256.921 151.616 257.737 151.616C258.553 151.616 259.241 151.32 259.801 150.728C260.377 150.136 260.665 149.328 260.665 148.304ZM272.242 137.24V155H268.138V137.24H272.242ZM277.68 140.216C276.96 140.216 276.368 140.008 275.904 139.592C275.456 139.16 275.232 138.632 275.232 138.008C275.232 137.368 275.456 136.84 275.904 136.424C276.368 135.992 276.96 135.776 277.68 135.776C278.384 135.776 278.96 135.992 279.408 136.424C279.872 136.84 280.104 137.368 280.104 138.008C280.104 138.632 279.872 139.16 279.408 139.592C278.96 140.008 278.384 140.216 277.68 140.216ZM279.72 141.608V155H275.616V141.608H279.72ZM288.542 155.192C287.374 155.192 286.334 154.992 285.422 154.592C284.51 154.192 283.79 153.648 283.262 152.96C282.734 152.256 282.438 151.472 282.374 150.608H286.43C286.478 151.072 286.694 151.448 287.078 151.736C287.462 152.024 287.934 152.168 288.494 152.168C289.006 152.168 289.398 152.072 289.67 151.88C289.958 151.672 290.102 151.408 290.102 151.088C290.102 150.704 289.902 150.424 289.502 150.248C289.102 150.056 288.454 149.848 287.558 149.624C286.598 149.4 285.798 149.168 285.158 148.928C284.518 148.672 283.966 148.28 283.502 147.752C283.038 147.208 282.806 146.48 282.806 145.568C282.806 144.8 283.014 144.104 283.43 143.48C283.862 142.84 284.486 142.336 285.302 141.968C286.134 141.6 287.118 141.416 288.254 141.416C289.934 141.416 291.254 141.832 292.214 142.664C293.19 143.496 293.75 144.6 293.894 145.976H290.102C290.038 145.512 289.83 145.144 289.478 144.872C289.142 144.6 288.694 144.464 288.134 144.464C287.654 144.464 287.286 144.56 287.03 144.752C286.774 144.928 286.646 145.176 286.646 145.496C286.646 145.88 286.846 146.168 287.246 146.36C287.662 146.552 288.302 146.744 289.166 146.936C290.158 147.192 290.966 147.448 291.59 147.704C292.214 147.944 292.758 148.344 293.222 148.904C293.702 149.448 293.95 150.184 293.966 151.112C293.966 151.896 293.742 152.6 293.294 153.224C292.862 153.832 292.23 154.312 291.398 154.664C290.582 155.016 289.63 155.192 288.542 155.192ZM305.109 141.464C306.645 141.464 307.877 141.976 308.805 143C309.733 144.008 310.197 145.4 310.197 147.176V155H306.117V147.728C306.117 146.832 305.885 146.136 305.421 145.64C304.957 145.144 304.333 144.896 303.549 144.896C302.765 144.896 302.141 145.144 301.677 145.64C301.213 146.136 300.981 146.832 300.981 147.728V155H296.877V137.24H300.981V143.408C301.397 142.816 301.965 142.344 302.685 141.992C303.405 141.64 304.213 141.464 305.109 141.464Z"-->
<!--          fill="#8349A9"/>-->
<!--    <path d="M65.344 182.224H69.024V184H63.104V172.832H65.344V182.224ZM79.0877 179.376C79.0877 179.696 79.0664 179.984 79.0237 180.24H72.5437C72.5971 180.88 72.8211 181.381 73.2157 181.744C73.6104 182.107 74.0957 182.288 74.6717 182.288C75.5037 182.288 76.0957 181.931 76.4477 181.216H78.8637C78.6077 182.069 78.1171 182.773 77.3917 183.328C76.6664 183.872 75.7757 184.144 74.7197 184.144C73.8664 184.144 73.0984 183.957 72.4157 183.584C71.7437 183.2 71.2157 182.661 70.8317 181.968C70.4584 181.275 70.2717 180.475 70.2717 179.568C70.2717 178.651 70.4584 177.845 70.8317 177.152C71.2051 176.459 71.7277 175.925 72.3997 175.552C73.0717 175.179 73.8451 174.992 74.7197 174.992C75.5624 174.992 76.3144 175.173 76.9757 175.536C77.6477 175.899 78.1651 176.416 78.5277 177.088C78.9011 177.749 79.0877 178.512 79.0877 179.376ZM76.7677 178.736C76.7571 178.16 76.5491 177.701 76.1437 177.36C75.7384 177.008 75.2424 176.832 74.6557 176.832C74.1011 176.832 73.6317 177.003 73.2477 177.344C72.8744 177.675 72.6451 178.139 72.5597 178.736H76.7677ZM80.5467 179.536C80.5467 178.64 80.7227 177.845 81.0747 177.152C81.4374 176.459 81.9227 175.925 82.5307 175.552C83.1494 175.179 83.8374 174.992 84.5947 174.992C85.2561 174.992 85.8321 175.125 86.3227 175.392C86.8241 175.659 87.2241 175.995 87.5227 176.4V175.136H89.7787V184H87.5227V182.704C87.2347 183.12 86.8347 183.467 86.3227 183.744C85.8214 184.011 85.2401 184.144 84.5787 184.144C83.8321 184.144 83.1494 183.952 82.5307 183.568C81.9227 183.184 81.4374 182.645 81.0747 181.952C80.7227 181.248 80.5467 180.443 80.5467 179.536ZM87.5227 179.568C87.5227 179.024 87.4161 178.56 87.2027 178.176C86.9894 177.781 86.7014 177.483 86.3387 177.28C85.9761 177.067 85.5867 176.96 85.1707 176.96C84.7547 176.96 84.3707 177.061 84.0187 177.264C83.6667 177.467 83.3787 177.765 83.1547 178.16C82.9414 178.544 82.8347 179.003 82.8347 179.536C82.8347 180.069 82.9414 180.539 83.1547 180.944C83.3787 181.339 83.6667 181.643 84.0187 181.856C84.3814 182.069 84.7654 182.176 85.1707 182.176C85.5867 182.176 85.9761 182.075 86.3387 181.872C86.7014 181.659 86.9894 181.36 87.2027 180.976C87.4161 180.581 87.5227 180.112 87.5227 179.568ZM94.6065 176.512C94.8945 176.043 95.2678 175.675 95.7265 175.408C96.1958 175.141 96.7292 175.008 97.3265 175.008V177.36H96.7345C96.0305 177.36 95.4972 177.525 95.1345 177.856C94.7825 178.187 94.6065 178.763 94.6065 179.584V184H92.3665V175.136H94.6065V176.512ZM104.147 175.008C105.203 175.008 106.057 175.344 106.707 176.016C107.358 176.677 107.683 177.605 107.683 178.8V184H105.443V179.104C105.443 178.4 105.267 177.861 104.915 177.488C104.563 177.104 104.083 176.912 103.475 176.912C102.857 176.912 102.366 177.104 102.003 177.488C101.651 177.861 101.475 178.4 101.475 179.104V184H99.2352V175.136H101.475V176.24C101.774 175.856 102.153 175.557 102.611 175.344C103.081 175.12 103.593 175.008 104.147 175.008ZM122.666 179.376C122.666 179.696 122.645 179.984 122.602 180.24H116.122C116.175 180.88 116.399 181.381 116.794 181.744C117.189 182.107 117.674 182.288 118.25 182.288C119.082 182.288 119.674 181.931 120.026 181.216H122.442C122.186 182.069 121.695 182.773 120.97 183.328C120.245 183.872 119.354 184.144 118.298 184.144C117.445 184.144 116.677 183.957 115.994 183.584C115.322 183.2 114.794 182.661 114.41 181.968C114.037 181.275 113.85 180.475 113.85 179.568C113.85 178.651 114.037 177.845 114.41 177.152C114.783 176.459 115.306 175.925 115.978 175.552C116.65 175.179 117.423 174.992 118.298 174.992C119.141 174.992 119.893 175.173 120.554 175.536C121.226 175.899 121.743 176.416 122.106 177.088C122.479 177.749 122.666 178.512 122.666 179.376ZM120.346 178.736C120.335 178.16 120.127 177.701 119.722 177.36C119.317 177.008 118.821 176.832 118.234 176.832C117.679 176.832 117.21 177.003 116.826 177.344C116.453 177.675 116.223 178.139 116.138 178.736H120.346ZM128.397 181.936L130.637 175.136H133.021L129.741 184H127.021L123.757 175.136H126.157L128.397 181.936ZM142.919 179.376C142.919 179.696 142.898 179.984 142.855 180.24H136.375C136.428 180.88 136.652 181.381 137.047 181.744C137.442 182.107 137.927 182.288 138.503 182.288C139.335 182.288 139.927 181.931 140.279 181.216H142.695C142.439 182.069 141.948 182.773 141.223 183.328C140.498 183.872 139.607 184.144 138.551 184.144C137.698 184.144 136.93 183.957 136.247 183.584C135.575 183.2 135.047 182.661 134.663 181.968C134.29 181.275 134.103 180.475 134.103 179.568C134.103 178.651 134.29 177.845 134.663 177.152C135.036 176.459 135.559 175.925 136.231 175.552C136.903 175.179 137.676 174.992 138.551 174.992C139.394 174.992 140.146 175.173 140.807 175.536C141.479 175.899 141.996 176.416 142.359 177.088C142.732 177.749 142.919 178.512 142.919 179.376ZM140.599 178.736C140.588 178.16 140.38 177.701 139.975 177.36C139.57 177.008 139.074 176.832 138.487 176.832C137.932 176.832 137.463 177.003 137.079 177.344C136.706 177.675 136.476 178.139 136.391 178.736H140.599ZM147.194 176.512C147.482 176.043 147.855 175.675 148.314 175.408C148.783 175.141 149.317 175.008 149.914 175.008V177.36H149.322C148.618 177.36 148.085 177.525 147.722 177.856C147.37 178.187 147.194 178.763 147.194 179.584V184H144.954V175.136H147.194V176.512ZM160.303 175.136L154.815 188.192H152.431L154.351 183.776L150.799 175.136H153.311L155.599 181.328L157.919 175.136H160.303ZM178.411 175.136L175.819 184H173.403L171.787 177.808L170.171 184H167.739L165.131 175.136H167.403L168.971 181.888L170.667 175.136H173.035L174.699 181.872L176.267 175.136H178.411ZM183.959 184.144C183.105 184.144 182.337 183.957 181.655 183.584C180.972 183.2 180.433 182.661 180.039 181.968C179.655 181.275 179.463 180.475 179.463 179.568C179.463 178.661 179.66 177.861 180.055 177.168C180.46 176.475 181.009 175.941 181.703 175.568C182.396 175.184 183.169 174.992 184.023 174.992C184.876 174.992 185.649 175.184 186.343 175.568C187.036 175.941 187.58 176.475 187.975 177.168C188.38 177.861 188.583 178.661 188.583 179.568C188.583 180.475 188.375 181.275 187.959 181.968C187.553 182.661 186.999 183.2 186.295 183.584C185.601 183.957 184.823 184.144 183.959 184.144ZM183.959 182.192C184.364 182.192 184.743 182.096 185.095 181.904C185.457 181.701 185.745 181.403 185.959 181.008C186.172 180.613 186.279 180.133 186.279 179.568C186.279 178.725 186.055 178.08 185.607 177.632C185.169 177.173 184.631 176.944 183.991 176.944C183.351 176.944 182.812 177.173 182.375 177.632C181.948 178.08 181.735 178.725 181.735 179.568C181.735 180.411 181.943 181.061 182.359 181.52C182.785 181.968 183.319 182.192 183.959 182.192ZM192.866 176.512C193.154 176.043 193.527 175.675 193.986 175.408C194.455 175.141 194.989 175.008 195.586 175.008V177.36H194.994C194.29 177.36 193.757 177.525 193.394 177.856C193.042 178.187 192.866 178.763 192.866 179.584V184H190.626V175.136H192.866V176.512ZM196.919 179.536C196.919 178.64 197.095 177.845 197.447 177.152C197.809 176.459 198.3 175.925 198.919 175.552C199.537 175.179 200.225 174.992 200.983 174.992C201.559 174.992 202.108 175.12 202.631 175.376C203.153 175.621 203.569 175.952 203.879 176.368V172.16H206.151V184H203.879V182.688C203.601 183.125 203.212 183.477 202.711 183.744C202.209 184.011 201.628 184.144 200.967 184.144C200.22 184.144 199.537 183.952 198.919 183.568C198.3 183.184 197.809 182.645 197.447 181.952C197.095 181.248 196.919 180.443 196.919 179.536ZM203.895 179.568C203.895 179.024 203.788 178.56 203.575 178.176C203.361 177.781 203.073 177.483 202.711 177.28C202.348 177.067 201.959 176.96 201.543 176.96C201.127 176.96 200.743 177.061 200.391 177.264C200.039 177.467 199.751 177.765 199.527 178.16C199.313 178.544 199.207 179.003 199.207 179.536C199.207 180.069 199.313 180.539 199.527 180.944C199.751 181.339 200.039 181.643 200.391 181.856C200.753 182.069 201.137 182.176 201.543 182.176C201.959 182.176 202.348 182.075 202.711 181.872C203.073 181.659 203.361 181.36 203.575 180.976C203.788 180.581 203.895 180.112 203.895 179.568ZM65.344 202.512C65.632 202.043 66.0053 201.675 66.464 201.408C66.9333 201.141 67.4667 201.008 68.064 201.008V203.36H67.472C66.768 203.36 66.2347 203.525 65.872 203.856C65.52 204.187 65.344 204.763 65.344 205.584V210H63.104V201.136H65.344V202.512ZM78.2127 205.376C78.2127 205.696 78.1914 205.984 78.1487 206.24H71.6687C71.7221 206.88 71.9461 207.381 72.3407 207.744C72.7354 208.107 73.2207 208.288 73.7967 208.288C74.6287 208.288 75.2207 207.931 75.5727 207.216H77.9887C77.7327 208.069 77.2421 208.773 76.5167 209.328C75.7914 209.872 74.9007 210.144 73.8447 210.144C72.9914 210.144 72.2234 209.957 71.5407 209.584C70.8687 209.2 70.3407 208.661 69.9567 207.968C69.5834 207.275 69.3967 206.475 69.3967 205.568C69.3967 204.651 69.5834 203.845 69.9567 203.152C70.3301 202.459 70.8527 201.925 71.5247 201.552C72.1967 201.179 72.9701 200.992 73.8447 200.992C74.6874 200.992 75.4394 201.173 76.1007 201.536C76.7727 201.899 77.2901 202.416 77.6527 203.088C78.0261 203.749 78.2127 204.512 78.2127 205.376ZM75.8927 204.736C75.8821 204.16 75.6741 203.701 75.2687 203.36C74.8634 203.008 74.3674 202.832 73.7807 202.832C73.2261 202.832 72.7567 203.003 72.3727 203.344C71.9994 203.675 71.7701 204.139 71.6847 204.736H75.8927ZM82.4877 198.16V210H80.2477V198.16H82.4877ZM93.3409 205.376C93.3409 205.696 93.3195 205.984 93.2769 206.24H86.7969C86.8502 206.88 87.0742 207.381 87.4689 207.744C87.8635 208.107 88.3489 208.288 88.9249 208.288C89.7569 208.288 90.3489 207.931 90.7009 207.216H93.1169C92.8609 208.069 92.3702 208.773 91.6449 209.328C90.9195 209.872 90.0289 210.144 88.9729 210.144C88.1195 210.144 87.3515 209.957 86.6689 209.584C85.9969 209.2 85.4689 208.661 85.0849 207.968C84.7115 207.275 84.5249 206.475 84.5249 205.568C84.5249 204.651 84.7115 203.845 85.0849 203.152C85.4582 202.459 85.9809 201.925 86.6529 201.552C87.3249 201.179 88.0982 200.992 88.9729 200.992C89.8155 200.992 90.5675 201.173 91.2289 201.536C91.9009 201.899 92.4182 202.416 92.7809 203.088C93.1542 203.749 93.3409 204.512 93.3409 205.376ZM91.0209 204.736C91.0102 204.16 90.8022 203.701 90.3969 203.36C89.9915 203.008 89.4955 202.832 88.9089 202.832C88.3542 202.832 87.8849 203.003 87.5009 203.344C87.1275 203.675 86.8982 204.139 86.8129 204.736H91.0209ZM99.0719 207.936L101.312 201.136H103.696L100.416 210H97.6959L94.4319 201.136H96.8319L99.0719 207.936ZM104.778 205.536C104.778 204.64 104.954 203.845 105.306 203.152C105.669 202.459 106.154 201.925 106.762 201.552C107.381 201.179 108.069 200.992 108.826 200.992C109.487 200.992 110.063 201.125 110.554 201.392C111.055 201.659 111.455 201.995 111.754 202.4V201.136H114.01V210H111.754V208.704C111.466 209.12 111.066 209.467 110.554 209.744C110.053 210.011 109.471 210.144 108.81 210.144C108.063 210.144 107.381 209.952 106.762 209.568C106.154 209.184 105.669 208.645 105.306 207.952C104.954 207.248 104.778 206.443 104.778 205.536ZM111.754 205.568C111.754 205.024 111.647 204.56 111.434 204.176C111.221 203.781 110.933 203.483 110.57 203.28C110.207 203.067 109.818 202.96 109.402 202.96C108.986 202.96 108.602 203.061 108.25 203.264C107.898 203.467 107.61 203.765 107.386 204.16C107.173 204.544 107.066 205.003 107.066 205.536C107.066 206.069 107.173 206.539 107.386 206.944C107.61 207.339 107.898 207.643 108.25 207.856C108.613 208.069 108.997 208.176 109.402 208.176C109.818 208.176 110.207 208.075 110.57 207.872C110.933 207.659 111.221 207.36 111.434 206.976C111.647 206.581 111.754 206.112 111.754 205.568ZM121.51 201.008C122.566 201.008 123.419 201.344 124.07 202.016C124.72 202.677 125.046 203.605 125.046 204.8V210H122.806V205.104C122.806 204.4 122.63 203.861 122.278 203.488C121.926 203.104 121.446 202.912 120.838 202.912C120.219 202.912 119.728 203.104 119.366 203.488C119.014 203.861 118.838 204.4 118.838 205.104V210H116.598V201.136H118.838V202.24C119.136 201.856 119.515 201.557 119.974 201.344C120.443 201.12 120.955 201.008 121.51 201.008ZM130.184 202.976V207.264C130.184 207.563 130.253 207.781 130.392 207.92C130.541 208.048 130.787 208.112 131.128 208.112H132.168V210H130.76C128.872 210 127.928 209.083 127.928 207.248V202.976H126.872V201.136H127.928V198.944H130.184V201.136H132.168V202.976H130.184ZM140.999 202.976V207.264C140.999 207.563 141.069 207.781 141.207 207.92C141.357 208.048 141.602 208.112 141.943 208.112H142.983V210H141.575C139.687 210 138.743 209.083 138.743 207.248V202.976H137.687V201.136H138.743V198.944H140.999V201.136H142.983V202.976H140.999ZM148.931 210.144C148.077 210.144 147.309 209.957 146.627 209.584C145.944 209.2 145.405 208.661 145.011 207.968C144.627 207.275 144.435 206.475 144.435 205.568C144.435 204.661 144.632 203.861 145.027 203.168C145.432 202.475 145.981 201.941 146.675 201.568C147.368 201.184 148.141 200.992 148.995 200.992C149.848 200.992 150.621 201.184 151.315 201.568C152.008 201.941 152.552 202.475 152.947 203.168C153.352 203.861 153.555 204.661 153.555 205.568C153.555 206.475 153.347 207.275 152.931 207.968C152.525 208.661 151.971 209.2 151.267 209.584C150.573 209.957 149.795 210.144 148.931 210.144ZM148.931 208.192C149.336 208.192 149.715 208.096 150.067 207.904C150.429 207.701 150.717 207.403 150.931 207.008C151.144 206.613 151.251 206.133 151.251 205.568C151.251 204.725 151.027 204.08 150.579 203.632C150.141 203.173 149.603 202.944 148.963 202.944C148.323 202.944 147.784 203.173 147.347 203.632C146.92 204.08 146.707 204.725 146.707 205.568C146.707 206.411 146.915 207.061 147.331 207.52C147.757 207.968 148.291 208.192 148.931 208.192ZM168.29 201.136L162.802 214.192H160.418L162.338 209.776L158.786 201.136H161.298L163.586 207.328L165.906 201.136H168.29ZM173.834 210.144C172.98 210.144 172.212 209.957 171.53 209.584C170.847 209.2 170.308 208.661 169.914 207.968C169.53 207.275 169.338 206.475 169.338 205.568C169.338 204.661 169.535 203.861 169.93 203.168C170.335 202.475 170.884 201.941 171.578 201.568C172.271 201.184 173.044 200.992 173.898 200.992C174.751 200.992 175.524 201.184 176.218 201.568C176.911 201.941 177.455 202.475 177.85 203.168C178.255 203.861 178.458 204.661 178.458 205.568C178.458 206.475 178.25 207.275 177.834 207.968C177.428 208.661 176.874 209.2 176.17 209.584C175.476 209.957 174.698 210.144 173.834 210.144ZM173.834 208.192C174.239 208.192 174.618 208.096 174.97 207.904C175.332 207.701 175.62 207.403 175.834 207.008C176.047 206.613 176.154 206.133 176.154 205.568C176.154 204.725 175.93 204.08 175.482 203.632C175.044 203.173 174.506 202.944 173.866 202.944C173.226 202.944 172.687 203.173 172.25 203.632C171.823 204.08 171.61 204.725 171.61 205.568C171.61 206.411 171.818 207.061 172.234 207.52C172.66 207.968 173.194 208.192 173.834 208.192ZM188.869 201.136V210H186.613V208.88C186.325 209.264 185.946 209.568 185.477 209.792C185.018 210.005 184.517 210.112 183.973 210.112C183.28 210.112 182.666 209.968 182.133 209.68C181.6 209.381 181.178 208.949 180.869 208.384C180.57 207.808 180.421 207.125 180.421 206.336V201.136H182.661V206.016C182.661 206.72 182.837 207.264 183.189 207.648C183.541 208.021 184.021 208.208 184.629 208.208C185.248 208.208 185.733 208.021 186.085 207.648C186.437 207.264 186.613 206.72 186.613 206.016V201.136H188.869ZM193.719 202.512C194.007 202.043 194.38 201.675 194.839 201.408C195.308 201.141 195.842 201.008 196.439 201.008V203.36H195.847C195.143 203.36 194.61 203.525 194.247 203.856C193.895 204.187 193.719 204.763 193.719 205.584V210H191.479V201.136H193.719V202.512ZM204.8 198.16V210H202.56V198.16H204.8ZM208.549 200.08C208.155 200.08 207.824 199.957 207.557 199.712C207.301 199.456 207.173 199.141 207.173 198.768C207.173 198.395 207.301 198.085 207.557 197.84C207.824 197.584 208.155 197.456 208.549 197.456C208.944 197.456 209.269 197.584 209.525 197.84C209.792 198.085 209.925 198.395 209.925 198.768C209.925 199.141 209.792 199.456 209.525 199.712C209.269 199.957 208.944 200.08 208.549 200.08ZM209.653 201.136V210H207.413V201.136H209.653ZM216.33 202.976H214.778V210H212.506V202.976H211.498V201.136H212.506V200.688C212.506 199.6 212.816 198.8 213.434 198.288C214.053 197.776 214.986 197.536 216.234 197.568V199.456C215.69 199.445 215.312 199.536 215.098 199.728C214.885 199.92 214.778 200.267 214.778 200.768V201.136H216.33V202.976ZM226.422 205.376C226.422 205.696 226.401 205.984 226.358 206.24H219.878C219.931 206.88 220.155 207.381 220.55 207.744C220.945 208.107 221.43 208.288 222.006 208.288C222.838 208.288 223.43 207.931 223.782 207.216H226.198C225.942 208.069 225.451 208.773 224.726 209.328C224.001 209.872 223.11 210.144 222.054 210.144C221.201 210.144 220.433 209.957 219.75 209.584C219.078 209.2 218.55 208.661 218.166 207.968C217.793 207.275 217.606 206.475 217.606 205.568C217.606 204.651 217.793 203.845 218.166 203.152C218.539 202.459 219.062 201.925 219.734 201.552C220.406 201.179 221.179 200.992 222.054 200.992C222.897 200.992 223.649 201.173 224.31 201.536C224.982 201.899 225.499 202.416 225.862 203.088C226.235 203.749 226.422 204.512 226.422 205.376ZM224.102 204.736C224.091 204.16 223.883 203.701 223.478 203.36C223.073 203.008 222.577 202.832 221.99 202.832C221.435 202.832 220.966 203.003 220.582 203.344C220.209 203.675 219.979 204.139 219.894 204.736H224.102ZM229.449 210.112C229.044 210.112 228.708 209.989 228.441 209.744C228.185 209.488 228.057 209.173 228.057 208.8C228.057 208.427 228.185 208.117 228.441 207.872C228.708 207.616 229.044 207.488 229.449 207.488C229.844 207.488 230.169 207.616 230.425 207.872C230.681 208.117 230.809 208.427 230.809 208.8C230.809 209.173 230.681 209.488 230.425 209.744C230.169 209.989 229.844 210.112 229.449 210.112Z"-->
<!--          fill="#32BDD2"/>-->
    <path fill-rule="evenodd" clip-rule="evenodd"
          d="M281.027 350.041L281.007 306.018L325.48 306L325.5 350.026L281.027 350.041Z" fill="#AE24F6"/>
    <path fill-rule="evenodd" clip-rule="evenodd"
          d="M44.0411 261.473L0.0177968 261.493L-1.94399e-06 217.02L44.0263 217L44.0411 261.473Z" fill="#AE24F6"/>
    <path fill-rule="evenodd" clip-rule="evenodd"
          d="M287.02 88.0411L287 44.0178L331.473 44L331.493 88.0263L287.02 88.0411Z" fill="#AE24F6"/>
    <path fill-rule="evenodd" clip-rule="evenodd"
          d="M243.02 44.0411L243 0.0178273L287.473 3.05176e-05L287.493 44.0263L243.02 44.0411Z" fill="#32BDD2"/>
    <path fill-rule="evenodd" clip-rule="evenodd"
          d="M88.0479 305.48L44.0246 305.5L44.0068 261.027L88.0331 261.007L88.0479 305.48Z" fill="#32BDD2"/>
    <path fill-rule="evenodd" clip-rule="evenodd"
          d="M44.0411 94.4735L0.0177815 94.4935L-1.72028e-05 50.0201L44.0262 50L44.0411 94.4735Z" fill="#AE24F6"/>
    <path fill-rule="evenodd" clip-rule="evenodd"
          d="M331.02 217.041L331 173.018L375.473 173L375.493 217.026L331.02 217.041Z" fill="#32BDD2"/>
</svg>
