<svg width="41" height="35" viewBox="0 0 41 35" fill="none" xmlns="http://www.w3.org/2000/svg">
    <path d="M38.8394 35H33.4822C32.7426 35 32.1429 34.4004 32.1429 33.6607V1.33929C32.1429 0.599643 32.7426 0 33.4822 0H38.8394C39.579 0 40.1787 0.599643 40.1787 1.33929V33.6607C40.1787 34.4004 39.579 35 38.8394 35Z" fill="#D8D0DC"/>
    <path d="M28.125 5.5357H22.7679C22.0286 5.5357 21.4286 6.1357 21.4286 6.87498V33.6607C21.4286 34.4 22.0286 35 22.7679 35H28.125C28.8643 35 29.4643 34.4 29.4643 33.6607V6.87498C29.4643 6.1357 28.8643 5.5357 28.125 5.5357Z" fill="#32BDD2"/>
    <path d="M17.4107 35H12.0536C11.3139 35 10.7143 34.4004 10.7143 33.6607V12.2321C10.7143 11.4925 11.3139 10.8929 12.0536 10.8929H17.4107C18.1504 10.8929 18.75 11.4925 18.75 12.2321V33.6607C18.75 34.4004 18.1504 35 17.4107 35Z" fill="#32BDD2"/>
    <path d="M6.69643 35H1.33929C0.599643 35 0 34.4004 0 33.6607V17.5893C0 16.8497 0.599643 16.25 1.33929 16.25H6.69643C7.43607 16.25 8.03571 16.8497 8.03571 17.5893V33.6607C8.03571 34.4004 7.43607 35 6.69643 35Z" fill="#32BDD2"/>
</svg>
